<svg width="46" height="46" viewBox="0 0 46 46" fill="none" xmlns="http://www.w3.org/2000/svg">
<g filter="url(#filter0_i_2232_4112)">
<path d="M7.8125 3.04785C8.52205 2.92881 9.24737 3.05069 9.9502 3.20605C11.8581 3.62949 15.3675 4.09509 16.1123 6.36523C16.3713 6.31035 16.6319 6.26391 16.8945 6.22949C19.6221 5.87112 22.9988 6.39667 24.5098 9.01758C25.1125 10.0628 25.289 11.3723 25.0381 12.5703C25.9545 12.5584 26.8768 12.6138 27.8018 12.7422C31.5624 13.2639 35.4566 15.2862 36.8389 19.0889C38.3978 23.3791 37.6001 28.1705 37.5889 32.624C37.5844 34.1449 37.6435 35.7398 38.3945 37.0576C38.8513 37.857 40.27 38.7743 39.9551 39.832C39.9327 39.9069 39.9031 39.9788 39.8662 40.0469L39.7656 40.2041C39.1977 40.9654 37.758 41.1756 36.9805 41.2617C31.9722 41.8163 26.6987 43.4327 21.5684 42.8896C17.1217 42.419 12.6876 40.114 10.082 36.376C7.66673 32.909 7.01045 28.3107 7.95508 24.2178C8.12407 23.4854 8.34178 22.7991 8.60352 22.1543C7.41827 21.8508 6.29248 21.0432 5.63477 20.0518C5.15368 19.3272 4.98757 18.4268 5.00098 17.5537C5.02852 15.8025 5.73946 14.1445 6.77832 12.7256C6.145 12.0401 5.67528 11.181 5.45801 10.373C4.95997 8.5177 5.30087 6.38579 5.9209 4.59961C6.21861 3.74336 6.9339 3.19528 7.8125 3.04785Z" fill="#E5E5E5"/>
</g>
<path d="M7.8125 3.04785L7.72977 2.55474L7.72975 2.55475L7.8125 3.04785ZM9.9502 3.20605L10.0585 2.71793L10.0581 2.71784L9.9502 3.20605ZM16.1123 6.36523L15.6372 6.52111L15.7771 6.94738L16.216 6.85437L16.1123 6.36523ZM16.8945 6.22949L16.9595 6.72525L16.9597 6.72523L16.8945 6.22949ZM24.5098 9.01758L24.0766 9.2673L24.0766 9.26735L24.5098 9.01758ZM25.0381 12.5703L24.5487 12.4678L24.4208 13.0783L25.0446 13.0703L25.0381 12.5703ZM27.8018 12.7422L27.733 13.2374L27.7331 13.2374L27.8018 12.7422ZM36.8389 19.0889L37.3088 18.9181L37.3088 18.9181L36.8389 19.0889ZM37.5889 32.624L38.0889 32.6255L38.0889 32.6253L37.5889 32.624ZM38.3945 37.0576L37.9601 37.3052L37.9604 37.3057L38.3945 37.0576ZM39.9551 39.832L40.4341 39.9753L40.4343 39.9747L39.9551 39.832ZM39.8662 40.0469L40.2874 40.3163L40.2971 40.3012L40.3056 40.2854L39.8662 40.0469ZM39.7656 40.2041L40.1664 40.5031L40.1771 40.4887L40.1868 40.4736L39.7656 40.2041ZM36.9805 41.2617L37.0355 41.7587L37.0355 41.7587L36.9805 41.2617ZM21.5684 42.8896L21.621 42.3924H21.621L21.5684 42.8896ZM10.082 36.376L9.67177 36.6618L9.67185 36.6619L10.082 36.376ZM7.95508 24.2178L8.44227 24.3302L8.44228 24.3302L7.95508 24.2178ZM8.60352 22.1543L9.0668 22.3424L9.2821 21.8119L8.72756 21.6699L8.60352 22.1543ZM5.63477 20.0518L6.05142 19.7754L6.05131 19.7752L5.63477 20.0518ZM5.00098 17.5537L4.50104 17.5458L4.50104 17.546L5.00098 17.5537ZM6.77832 12.7256L7.18175 13.021L7.425 12.6887L7.14557 12.3863L6.77832 12.7256ZM5.45801 10.373L4.9751 10.5027L4.97516 10.5029L5.45801 10.373ZM5.9209 4.59961L5.44863 4.4354L5.44855 4.43564L5.9209 4.59961ZM7.8125 3.04785L7.89523 3.54096C8.50231 3.43911 9.14568 3.54029 9.84227 3.69427L9.9502 3.20605L10.0581 2.71784C9.34905 2.5611 8.54178 2.41851 7.72977 2.55474L7.8125 3.04785ZM9.9502 3.20605L9.84186 3.69418C10.8345 3.91448 12.1267 4.1246 13.2919 4.56132C14.4635 5.00043 15.3385 5.61057 15.6372 6.52111L16.1123 6.36523L16.5874 6.20936C16.1413 4.84976 14.8891 4.09202 13.6429 3.62493C12.3902 3.15546 10.9738 2.92106 10.0585 2.71793L9.9502 3.20605ZM16.1123 6.36523L16.216 6.85437C16.4644 6.80171 16.712 6.75769 16.9595 6.72525L16.8945 6.22949L16.8296 5.73373C16.5518 5.77013 16.2781 5.81899 16.0086 5.8761L16.1123 6.36523ZM16.8945 6.22949L16.9597 6.72523C19.6342 6.37383 22.7246 6.92206 24.0766 9.2673L24.5098 9.01758L24.9429 8.76785C23.2731 5.87128 19.61 5.36841 16.8294 5.73375L16.8945 6.22949ZM24.5098 9.01758L24.0766 9.26735C24.6129 10.1973 24.7765 11.3799 24.5487 12.4678L25.0381 12.5703L25.5275 12.6728C25.8014 11.3647 25.612 9.92822 24.9429 8.76781L24.5098 9.01758ZM25.0381 12.5703L25.0446 13.0703C25.9364 13.0587 26.8335 13.1126 27.733 13.2374L27.8018 12.7422L27.8705 12.2469C26.92 12.115 25.9726 12.0582 25.0316 12.0704L25.0381 12.5703ZM27.8018 12.7422L27.7331 13.2374C31.3985 13.7459 35.0756 15.7015 36.3689 19.2597L36.8389 19.0889L37.3088 18.9181C35.8377 14.8709 31.7262 12.7818 27.8705 12.2469L27.8018 12.7422ZM36.8389 19.0889L36.3689 19.2596C37.1193 21.3245 37.3086 23.5273 37.3027 25.7939C37.2997 26.9269 37.2482 28.0667 37.1962 29.2109C37.1442 30.3513 37.0917 31.4968 37.0889 32.6228L37.5889 32.624L38.0889 32.6253C38.0916 31.5245 38.143 30.401 38.1951 29.2564C38.247 28.1156 38.2997 26.9544 38.3027 25.7965C38.3087 23.4814 38.1174 21.1434 37.3088 18.9181L36.8389 19.0889ZM37.5889 32.624L37.0889 32.6226C37.0844 34.1344 37.1351 35.8576 37.9601 37.3052L38.3945 37.0576L38.8289 36.8101C38.1519 35.622 38.0844 34.1553 38.0889 32.6255L37.5889 32.624ZM38.3945 37.0576L37.9604 37.3057C38.1036 37.5564 38.3108 37.7985 38.5027 38.013C38.7075 38.2418 38.8995 38.4444 39.0751 38.6619C39.4402 39.1144 39.5552 39.423 39.4759 39.6894L39.9551 39.832L40.4343 39.9747C40.6699 39.1833 40.233 38.5044 39.8533 38.0339C39.6564 37.79 39.4279 37.5473 39.248 37.3462C39.0552 37.1308 38.9138 36.9585 38.8287 36.8096L38.3945 37.0576ZM39.9551 39.832L39.476 39.6888C39.4631 39.7321 39.4465 39.772 39.4268 39.8084L39.8662 40.0469L40.3056 40.2854C40.3598 40.1857 40.4023 40.0816 40.4341 39.9753L39.9551 39.832ZM39.8662 40.0469L39.445 39.7774L39.3444 39.9347L39.7656 40.2041L40.1868 40.4736L40.2874 40.3163L39.8662 40.0469ZM39.7656 40.2041L39.3648 39.9052C39.1797 40.1534 38.8079 40.3572 38.308 40.5072C37.8248 40.6522 37.3074 40.7225 36.9254 40.7648L36.9805 41.2617L37.0355 41.7587C37.4311 41.7149 38.0223 41.637 38.5954 41.465C39.1517 41.2981 39.7836 41.0162 40.1664 40.5031L39.7656 40.2041ZM36.9805 41.2617L36.9254 40.7648C34.4098 41.0433 31.7894 41.5939 29.2427 41.9934C26.6697 42.3969 24.1203 42.657 21.621 42.3924L21.5684 42.8896L21.5157 43.3869C24.1467 43.6654 26.7992 43.3888 29.3976 42.9813C32.0223 42.5696 34.5428 42.0347 37.0355 41.7587L36.9805 41.2617ZM21.5684 42.8896L21.621 42.3924C17.2975 41.9348 13.0035 39.6928 10.4922 36.0901L10.082 36.376L9.67185 36.6619C12.3717 40.5351 16.9458 42.9032 21.5157 43.3869L21.5684 42.8896ZM10.082 36.376L10.4923 36.0902C8.16836 32.7544 7.52498 28.3047 8.44227 24.3302L7.95508 24.2178L7.46789 24.1053C6.49591 28.3168 7.16511 33.0637 9.67177 36.6618L10.082 36.376ZM7.95508 24.2178L8.44228 24.3302C8.60547 23.623 8.81529 22.962 9.0668 22.3424L8.60352 22.1543L8.14023 21.9662C7.86827 22.6362 7.64267 23.3479 7.46788 24.1053L7.95508 24.2178ZM8.60352 22.1543L8.72756 21.6699C7.66223 21.3971 6.64071 20.6636 6.05142 19.7754L5.63477 20.0518L5.21811 20.3282C5.94426 21.4227 7.1743 22.3044 8.47947 22.6387L8.60352 22.1543ZM5.63477 20.0518L6.05131 19.7752C5.64519 19.1635 5.48843 18.3746 5.50092 17.5614L5.00098 17.5537L4.50104 17.546C4.48671 18.479 4.66217 19.4908 5.21822 20.3283L5.63477 20.0518ZM5.00098 17.5537L5.50091 17.5616C5.52639 15.9416 6.18533 14.3819 7.18175 13.021L6.77832 12.7256L6.3749 12.4302C5.29358 13.9071 4.53064 15.6634 4.50104 17.5458L5.00098 17.5537ZM6.77832 12.7256L7.14557 12.3863C6.5652 11.7581 6.13637 10.9702 5.94085 10.2432L5.45801 10.373L4.97516 10.5029C5.21418 11.3917 5.7248 12.3221 6.41107 13.0649L6.77832 12.7256ZM5.45801 10.373L5.94091 10.2434C5.4794 8.52412 5.78952 6.50279 6.39325 4.76357L5.9209 4.59961L5.44855 4.43564C4.81222 6.26878 4.44055 8.51128 4.9751 10.5027L5.45801 10.373ZM5.9209 4.59961L6.39317 4.76382C6.62511 4.09673 7.17881 3.66118 7.89525 3.54096L7.8125 3.04785L7.72975 2.55475C6.689 2.72939 5.81212 3.38999 5.44863 4.4354L5.9209 4.59961Z" fill="#C8C8C8"/>
<defs>
<filter id="filter0_i_2232_4112" x="4.5" y="2.5" width="36" height="40.9995" filterUnits="userSpaceOnUse" color-interpolation-filters="sRGB">
<feFlood flood-opacity="0" result="BackgroundImageFix"/>
<feBlend mode="normal" in="SourceGraphic" in2="BackgroundImageFix" result="shape"/>
<feColorMatrix in="SourceAlpha" type="matrix" values="0 0 0 0 0 0 0 0 0 0 0 0 0 0 0 0 0 0 127 0" result="hardAlpha"/>
<feOffset/>
<feGaussianBlur stdDeviation="2"/>
<feComposite in2="hardAlpha" operator="arithmetic" k2="-1" k3="1"/>
<feColorMatrix type="matrix" values="0 0 0 0 0 0 0 0 0 0 0 0 0 0 0 0 0 0 0.4 0"/>
<feBlend mode="normal" in2="shape" result="effect1_innerShadow_2232_4112"/>
</filter>
</defs>
</svg>
