<svg width="38" height="42" viewBox="0 0 38 42" fill="none" xmlns="http://www.w3.org/2000/svg">
<path d="M5.67228 11.9166C3.65703 12.0871 1.9412 10.0606 1.45898 8.29095C0.959929 6.45625 1.30197 4.34792 1.92326 2.58163C2.22156 1.73493 2.93817 1.19327 3.81852 1.04748C4.52952 0.929723 5.25622 1.04972 5.96049 1.20336C8.03406 1.65755 11.9995 2.15996 12.2653 4.93668C12.3304 5.6174 12.1173 6.30261 11.7853 6.90035C11.0373 8.24385 9.90577 9.33166 8.72264 10.2927C7.71781 11.108 6.74327 11.8258 5.67228 11.9155V11.9166Z" fill="#A7BEFF" stroke="#363636" stroke-width="2" stroke-miterlimit="10"/>
<path d="M20.5107 11.9114C21.4067 10.4512 21.4146 8.43149 20.5488 6.95005C19.0349 4.35837 15.6514 3.83913 12.9184 4.19351C9.48455 4.63761 6.34784 6.86594 3.94793 9.26922C2.30724 10.9121 1.03775 13.0687 1.00075 15.3912C0.987288 16.2548 1.15438 17.1452 1.63661 17.8618C2.49677 19.1414 4.15428 20.1148 5.703 20.0688C6.66073 20.0408 7.58929 19.7414 8.4887 19.4128C11.8654 18.1769 15.0694 16.4723 17.9807 14.3629C18.8823 13.7091 19.7705 13.0025 20.3997 12.0841C20.4378 12.028 20.4759 11.9697 20.5118 11.9114H20.5107Z" fill="#A7BEFF" stroke="#363636" stroke-width="2" stroke-miterlimit="10"/>
<path d="M35.9367 37.6315C35.4612 38.5141 33.8754 38.744 33.0444 38.8348C28.0259 39.3832 22.7416 40.9824 17.6009 40.4452C13.1454 39.9798 8.70327 37.6999 6.09253 34.0036C3.67243 30.5753 3.01413 26.0289 3.96064 21.9816C5.10901 17.0696 8.47562 14.2379 12.9648 12.281C16.4065 10.7794 20.1051 10.1211 23.8474 10.6336C27.6155 11.1495 31.517 13.149 32.902 16.9092C34.4642 21.1517 33.6646 25.8899 33.6534 30.2938C33.6489 31.7977 33.7083 33.3744 34.4608 34.6776C34.9184 35.4682 36.3404 36.3755 36.0241 37.4218C36.0017 37.4958 35.9726 37.5664 35.9356 37.6337L35.9367 37.6315Z" fill="#A7BEFF" stroke="#363636" stroke-width="2" stroke-miterlimit="10"/>
<path d="M27 30.777C27 30.777 27.9443 33.1578 32.374 35.5465" stroke="#363636" stroke-width="2" stroke-linecap="round" stroke-linejoin="round"/>
<path d="M23.8401 15.1753C24.3924 15.1753 24.8401 14.7276 24.8401 14.1753C24.8401 13.623 24.3924 13.1753 23.8401 13.1753C23.2878 13.1753 22.8401 13.623 22.8401 14.1753C22.8401 14.7276 23.2878 15.1753 23.8401 15.1753Z" fill="#363636"/>
<path d="M16.3899 17.9123C16.9422 17.9123 17.3899 17.4646 17.3899 16.9123C17.3899 16.36 16.9422 15.9123 16.3899 15.9123C15.8376 15.9123 15.3899 16.36 15.3899 16.9123C15.3899 17.4646 15.8376 17.9123 16.3899 17.9123Z" fill="#363636"/>
<path d="M19 19.777C19 19.777 21.2392 16.2471 27 16.8452" stroke="#363636" stroke-width="2" stroke-linecap="round" stroke-linejoin="round"/>
<path d="M29.272 32.6231C29.3112 32.7487 29.3213 32.8676 29.2899 32.9753C28.7539 34.7965 25.5757 34.247 23.88 34.1651C18.6787 33.9162 11.8188 30.6673 13.9473 24.3872C14.6079 22.4369 16.0175 20.8333 17.5203 19.4258C18.8279 18.2012 20.2869 17.0528 22.0151 16.5818C24.868 15.8035 26.4885 17.8199 26.8508 20.4486C27.3285 23.9128 26.6366 27.8917 28.3389 31.0912C28.6126 31.606 29.0982 32.0658 29.272 32.6231Z" fill="#363636"/>
</svg>
